<svg xmlns="http://www.w3.org/2000/svg" viewBox="0 0 1200 900" role="img" aria-label="Parking garage illustration">
  <defs>
    <linearGradient id="bg" x1="0" y1="0" x2="0" y2="1">
      <stop offset="0%" stop-color="#101113"/>
      <stop offset="55%" stop-color="#17181b"/>
      <stop offset="100%" stop-color="#0c0d0f"/>
    </linearGradient>
    <linearGradient id="ceiling" x1="0" y1="0" x2="0" y2="1">
      <stop offset="0%" stop-color="#2b2d31"/>
      <stop offset="100%" stop-color="#0c0d0f"/>
    </linearGradient>
    <linearGradient id="floor" x1="0" y1="0" x2="0" y2="1">
      <stop offset="0%" stop-color="#202226"/>
      <stop offset="100%" stop-color="#111214"/>
    </linearGradient>
    <linearGradient id="light" x1="0" y1="0" x2="1" y2="0">
      <stop offset="0%" stop-color="#ffffff" stop-opacity="0.95"/>
      <stop offset="100%" stop-color="#d9dee8" stop-opacity="0.55"/>
    </linearGradient>
    <linearGradient id="pillar" x1="0" y1="0" x2="1" y2="1">
      <stop offset="0%" stop-color="#1f2125"/>
      <stop offset="100%" stop-color="#0b0c0e"/>
    </linearGradient>
    <linearGradient id="stripe" x1="0" y1="0" x2="1" y2="1">
      <stop offset="0%" stop-color="#caa51e"/>
      <stop offset="50%" stop-color="#111"/>
      <stop offset="100%" stop-color="#caa51e"/>
    </linearGradient>
    <radialGradient id="glow" cx="50%" cy="35%" r="70%">
      <stop offset="0%" stop-color="#ffffff" stop-opacity="0.12"/>
      <stop offset="100%" stop-color="#ffffff" stop-opacity="0"/>
    </radialGradient>
    <filter id="blur" x="-20%" y="-20%" width="140%" height="140%">
      <feGaussianBlur stdDeviation="18"/>
    </filter>
  </defs>

  <rect width="1200" height="900" fill="url(#bg)"/>
  <rect width="1200" height="320" fill="url(#ceiling)"/>
  <rect y="320" width="1200" height="580" fill="url(#floor)"/>
  <rect width="1200" height="900" fill="url(#glow)"/>

  <g opacity="0.9">
    <rect x="40" y="82" width="160" height="10" rx="5" fill="url(#light)"/>
    <rect x="260" y="112" width="180" height="10" rx="5" fill="url(#light)"/>
    <rect x="510" y="90" width="170" height="10" rx="5" fill="url(#light)"/>
    <rect x="760" y="118" width="190" height="10" rx="5" fill="url(#light)"/>
    <rect x="1020" y="96" width="140" height="10" rx="5" fill="url(#light)"/>
    <rect x="110" y="252" width="165" height="10" rx="5" fill="url(#light)"/>
    <rect x="360" y="274" width="175" height="10" rx="5" fill="url(#light)"/>
    <rect x="620" y="244" width="180" height="10" rx="5" fill="url(#light)"/>
    <rect x="900" y="264" width="155" height="10" rx="5" fill="url(#light)"/>
  </g>

  <g opacity="0.18" filter="url(#blur)">
    <ellipse cx="290" cy="710" rx="260" ry="60" fill="#000"/>
    <ellipse cx="770" cy="706" rx="330" ry="72" fill="#000"/>
  </g>

  <g opacity="0.36">
    <rect x="0" y="420" width="1200" height="8" fill="#2c2d30"/>
    <rect x="0" y="610" width="1200" height="6" fill="#1a1b1d"/>
    <rect x="0" y="760" width="1200" height="5" fill="#26272b"/>
  </g>

  <g transform="translate(80 500)">
    <g transform="translate(0 110)">
      <path d="M0 84 L35 0 H210 L248 84 Z" fill="#0e1012"/>
      <rect x="0" y="84" width="250" height="96" rx="18" fill="#101215"/>
      <rect x="25" y="104" width="48" height="24" rx="8" fill="#d1d3d5"/>
      <rect x="90" y="104" width="48" height="24" rx="8" fill="#d1d3d5"/>
      <rect x="165" y="104" width="48" height="24" rx="8" fill="#d1d3d5"/>
      <rect x="34" y="134" width="42" height="10" rx="5" fill="#3d4146"/>
      <rect x="98" y="134" width="42" height="10" rx="5" fill="#3d4146"/>
      <rect x="174" y="134" width="42" height="10" rx="5" fill="#3d4146"/>
      <circle cx="52" cy="184" r="20" fill="#0a0b0d"/>
      <circle cx="196" cy="184" r="20" fill="#0a0b0d"/>
      <circle cx="52" cy="184" r="8" fill="#4a4f57"/>
      <circle cx="196" cy="184" r="8" fill="#4a4f57"/>
    </g>
    <g transform="translate(120 0)">
      <path d="M0 110 L26 18 H240 L260 110 Z" fill="#0b0c0e"/>
      <rect x="8" y="110" width="246" height="96" rx="18" fill="#15171a"/>
      <rect x="30" y="130" width="52" height="26" rx="8" fill="#d4d6d8"/>
      <rect x="98" y="130" width="52" height="26" rx="8" fill="#d4d6d8"/>
      <rect x="166" y="130" width="52" height="26" rx="8" fill="#d4d6d8"/>
      <rect x="42" y="164" width="42" height="10" rx="5" fill="#3c4045"/>
      <rect x="110" y="164" width="42" height="10" rx="5" fill="#3c4045"/>
      <rect x="178" y="164" width="42" height="10" rx="5" fill="#3c4045"/>
      <circle cx="56" cy="210" r="18" fill="#090a0c"/>
      <circle cx="198" cy="210" r="18" fill="#090a0c"/>
    </g>
  </g>

  <g transform="translate(500 610)">
    <path d="M20 112 L72 20 H346 L392 112 Z" fill="#e9ecef"/>
    <rect x="0" y="112" width="412" height="112" rx="22" fill="#f5f7f8"/>
    <path d="M52 62 H355 L376 112 H30 Z" fill="#d8dde1"/>
    <rect x="52" y="132" width="60" height="24" rx="8" fill="#7f8a94"/>
    <rect x="138" y="132" width="60" height="24" rx="8" fill="#7f8a94"/>
    <rect x="224" y="132" width="60" height="24" rx="8" fill="#7f8a94"/>
    <rect x="310" y="132" width="60" height="24" rx="8" fill="#7f8a94"/>
    <rect x="80" y="164" width="250" height="14" rx="7" fill="#bac1c7"/>
    <circle cx="92" cy="232" r="24" fill="#1f2327"/>
    <circle cx="320" cy="232" r="24" fill="#1f2327"/>
    <circle cx="92" cy="232" r="10" fill="#656f79"/>
    <circle cx="320" cy="232" r="10" fill="#656f79"/>
    <rect x="176" y="96" width="56" height="18" rx="9" fill="#d7dbe0"/>
  </g>

  <g transform="translate(930 220)">
    <rect x="0" y="0" width="150" height="680" fill="url(#pillar)"/>
    <rect x="18" y="0" width="34" height="680" fill="url(#stripe)"/>
    <rect x="62" y="0" width="34" height="680" fill="url(#stripe)"/>
    <rect x="106" y="0" width="34" height="680" fill="url(#stripe)"/>
  </g>

  <g transform="translate(1040 160)" opacity="0.55">
    <rect x="0" y="0" width="70" height="700" fill="#17191c"/>
  </g>

  <g opacity="0.14">
    <path d="M0 860 H1200" stroke="#ffffff" stroke-width="3"/>
    <path d="M120 820 C330 770, 620 770, 1080 820" stroke="#ffffff" stroke-width="2" fill="none"/>
  </g>
</svg>
